# xmcd CD database file
#
# Track frame offsets:
#	150
#	16521
#	35114
#
# Disc length: 708 seconds
#
# Revision: 2
# Processed by: cddbd v1.4b41PL1 Copyright (c) Steve Scherf et al.
# Submitted via: Feurio! 1.50.2ß - http://www.feurio.com
#
DISCID=1802c203
DTITLE=Various Artist - Es ist geil .....
DYEAR=1900
DGENRE=
TTITLE0=??? - Track: 1
TTITLE1=??? - Track: 2
TTITLE2=??? - Track: 3
EXTD=
EXTT0=
EXTT1=
EXTT2=
PLAYORDER=
